<?xml version="1.0" encoding="UTF-8" standalone="no"?>
<!-- Created with Inkscape (http://www.inkscape.org/) -->

<svg
   width="133.5714"
   height="143.17876"
   viewBox="0 0 133.57139 143.17877"
   version="1.1"
   id="svg1"
   xmlns="http://www.w3.org/2000/svg"
   xmlns:svg="http://www.w3.org/2000/svg">
  <defs
     id="defs1" />
  <g
     id="layer1">
    <path
       style="font-weight:900;font-size:201.397px;line-height:102%;font-family:Arial;-inkscape-font-specification:'Arial Heavy';letter-spacing:18.881px;stroke-width:10"
       d="M 4.1723251e-7,-3.2484531e-6 H 66.18173 q 19.569338,0 31.566621,5.3102725484531 12.095619,5.3102727 19.962689,15.2424487 7.86707,9.932177 11.40725,23.10952 3.54019,13.177343 3.54019,27.9281 0,23.109519 -5.31028,35.893512 -5.21193,12.68565 -14.55408,21.33943 -9.34214,8.55543 -20.061027,11.40725 -14.652419,3.93353 -26.551363,3.93353 H 4.1723251e-7 Z M 44.547287,32.648339 v 78.769041 h 10.91556 q 13.96405,0 19.864353,-3.04849 5.900303,-3.14683 9.243808,-10.81722 3.343505,-7.768732 3.343505,-25.076287 0,-22.912842 -7.473717,-31.369943 -7.473717,-8.457101 -24.781272,-8.457101 z"
       id="text4"
       transform="scale(1.0068817,0.99316534)"
       aria-label="D" />
  </g>
</svg>
