<?xml version="1.0" encoding="UTF-8" standalone="no"?>
<!-- Created with Inkscape (http://www.inkscape.org/) -->

<svg
   width="131.69011"
   height="148.06207"
   viewBox="0 0 131.6901 148.06209"
   version="1.1"
   id="svg1"
   xmlns="http://www.w3.org/2000/svg"
   xmlns:svg="http://www.w3.org/2000/svg">
  <defs
     id="defs1" />
  <g
     id="layer1">
    <path
       style="font-weight:900;font-size:201.397px;line-height:102%;font-family:Arial;-inkscape-font-specification:'Arial Heavy';letter-spacing:18.881px;stroke-width:10"
       d="M -1.3411045e-7,98.928414 42.383842,96.273277 q 1.376737,10.325533 5.605288,15.734143 6.883686,8.75211 19.667676,8.75211 9.538823,0 14.652418,-4.42522 5.211934,-4.52357 5.211934,-10.42387 0,-5.60529 -4.916919,-10.030516 Q 77.68732,91.454697 59.789735,87.521161 30.484898,80.93249 17.995923,70.01693 5.4086108,59.101369 5.4086108,42.187168 q 0,-11.112237 6.3919952,-20.946075 Q 18.290939,11.308917 31.173266,5.7036289 44.153933,2.8163195e-6 66.673422,2.8163195e-6 q 27.633085,0 42.088828,10.3255301836805 14.55408,10.227191 17.30755,32.648342 l -41.990485,2.45846 q -1.671752,-9.7355 -7.080363,-14.160727 -5.310273,-4.425227 -14.750757,-4.425227 -7.768732,0 -11.702268,3.343505 -3.933535,3.245166 -3.933535,7.965408 0,3.441844 3.245167,6.195318 3.146828,2.851813 14.947434,5.310273 29.206499,6.293656 41.793807,12.783989 12.68566,6.391995 18.38928,15.930818 5.80197,9.538823 5.80197,21.339429 0,13.865709 -7.6704,25.567979 -7.67039,11.70227 -21.43776,17.79925 -13.767378,5.99864 -34.713453,5.99864 -36.778554,0 -50.939281,-14.16073 Q 1.8684291,120.75953 -1.3411045e-7,98.928414 Z"
       id="text1"
       transform="scale(1.0068817,0.99316534)"
       aria-label="S" />
  </g>
</svg>
